<?xml version="1.0" encoding="UTF-8" standalone="no"?>
<!-- Created with Inkscape (http://www.inkscape.org/) -->

<svg
   width="71.427002mm"
   height="18.451305mm"
   viewBox="0 0 71.427002 18.451305"
   version="1.1"
   id="svg1"
   inkscape:version="1.4.1 (93de688d07, 2025-03-30)"
   sodipodi:docname="drawing.svg"
   inkscape:export-filename="logo.svg"
   inkscape:export-xdpi="96"
   inkscape:export-ydpi="96"
   xmlns:inkscape="http://www.inkscape.org/namespaces/inkscape"
   xmlns:sodipodi="http://sodipodi.sourceforge.net/DTD/sodipodi-0.dtd"
   xmlns:xlink="http://www.w3.org/1999/xlink"
   xmlns="http://www.w3.org/2000/svg"
   xmlns:svg="http://www.w3.org/2000/svg">
  <sodipodi:namedview
     id="namedview1"
     pagecolor="#ffffff"
     bordercolor="#000000"
     borderopacity="0.25"
     inkscape:showpageshadow="2"
     inkscape:pageopacity="0.0"
     inkscape:pagecheckerboard="false"
     inkscape:deskcolor="#d1d1d1"
     inkscape:document-units="mm"
     inkscape:zoom="3.9999998"
     inkscape:cx="18.375001"
     inkscape:cy="23.250001"
     inkscape:window-width="956"
     inkscape:window-height="1033"
     inkscape:window-x="960"
     inkscape:window-y="0"
     inkscape:window-maximized="0"
     inkscape:current-layer="layer1">
    <inkscape:page
       x="0"
       y="0"
       width="71.427002"
       height="18.451303"
       id="page2"
       margin="0"
       bleed="0" />
  </sodipodi:namedview>
  <defs
     id="defs1">
    <linearGradient
       id="linearGradient1"
       inkscape:collect="always">
      <stop
         style="stop-color:#097bbb;stop-opacity:1;"
         offset="0.5"
         id="stop1" />
      <stop
         style="stop-color:#175fad;stop-opacity:1;"
         offset="0.5"
         id="stop2" />
    </linearGradient>
    <linearGradient
       inkscape:collect="always"
       xlink:href="#linearGradient1"
       id="linearGradient2"
       x1="255.0647"
       y1="218.41144"
       x2="255.0647"
       y2="276.10748"
       gradientUnits="userSpaceOnUse" />
  </defs>
  <g
     inkscape:label="Layer 1"
     inkscape:groupmode="layer"
     id="layer1">
    <path
       d="m 228.95273,249.26894 c 0.024,-0.072 0.072,-0.24 0.12,-0.48 0.048,-0.24 0.096,-0.528 0.144,-0.876 0.048,-0.348 0.108,-0.732 0.156,-1.164 0.048,-0.432 0.096,-0.864 0.12,-1.32 0.048,-0.576 0.108,-1.128 0.192,-1.656 0.096,-0.528 0.168,-0.96 0.228,-1.284 0.024,0.564 0.048,1.188 0.072,1.884 0.024,0.696 0.06,1.356 0.096,1.992 0.036,0.636 0.072,1.2 0.12,1.692 0.048,0.492 0.084,0.816 0.132,0.984 0.084,0.24 0.192,0.396 0.336,0.468 0.144,0.06 0.276,0.06 0.396,0 0.12,-0.048 0.204,-0.144 0.252,-0.288 0.048,-0.144 0.048,-0.324 -0.012,-0.564 -0.036,-0.168 -0.084,-0.576 -0.132,-1.212 -0.048,-0.624 -0.108,-1.308 -0.156,-2.04 -0.048,-0.72 -0.096,-1.416 -0.144,-2.064 -0.048,-0.648 -0.096,-1.092 -0.12,-1.308 -0.036,-0.24 -0.144,-0.384 -0.324,-0.42 -0.168,-0.024 -0.312,-0.048 -0.42,-0.048 -0.12,0 -0.276,0.024 -0.444,0.072 -0.168,0.048 -0.288,0.168 -0.336,0.336 -0.024,0.12 -0.072,0.3 -0.12,0.528 -0.048,0.228 -0.096,0.492 -0.156,0.78 -0.048,0.3 -0.108,0.624 -0.156,0.96 -0.048,0.348 -0.096,0.696 -0.144,1.044 -0.048,0.576 -0.096,1.116 -0.144,1.62 -0.048,0.504 -0.084,0.924 -0.108,1.236 -0.048,-0.384 -0.108,-0.876 -0.18,-1.464 -0.072,-0.588 -0.144,-1.188 -0.216,-1.788 -0.072,-0.6 -0.144,-1.164 -0.228,-1.692 -0.072,-0.528 -0.156,-0.936 -0.228,-1.224 -0.048,-0.168 -0.132,-0.288 -0.264,-0.336 -0.12,-0.048 -0.24,-0.072 -0.348,-0.072 -0.12,0 -0.264,0.024 -0.432,0.084 -0.168,0.072 -0.288,0.18 -0.372,0.348 -0.048,0.12 -0.108,0.336 -0.156,0.672 -0.048,0.336 -0.096,0.708 -0.144,1.14 -0.048,0.432 -0.084,0.9 -0.132,1.38 -0.036,0.48 -0.072,0.924 -0.108,1.32 -0.036,0.504 -0.084,0.96 -0.132,1.38 -0.048,0.42 -0.072,0.708 -0.072,0.852 0,0.228 0.036,0.42 0.084,0.576 0.06,0.168 0.168,0.252 0.324,0.252 0.144,0.012 0.264,-0.048 0.372,-0.192 0.12,-0.132 0.168,-0.324 0.156,-0.576 0,-0.144 0.012,-0.408 0.06,-0.78 0.048,-0.36 0.084,-0.828 0.108,-1.404 0.048,-0.696 0.096,-1.344 0.132,-1.92 0.036,-0.576 0.084,-1.128 0.132,-1.632 0.072,0.528 0.168,1.104 0.264,1.74 0.096,0.648 0.192,1.26 0.288,1.848 0.096,0.588 0.18,1.116 0.264,1.596 0.084,0.48 0.144,0.804 0.192,0.996 0.024,0.096 0.084,0.18 0.18,0.228 0.096,0.06 0.228,0.084 0.372,0.072 0.132,0 0.252,-0.012 0.372,-0.06 0.12,-0.036 0.216,-0.108 0.264,-0.216 z m 3.972,-0.588 c -0.204,0 -0.336,0.048 -0.396,0.144 -0.06,0.096 -0.084,0.204 -0.084,0.324 -0.012,0.12 0.012,0.24 0.072,0.348 0.06,0.108 0.192,0.156 0.396,0.156 0.228,0 0.552,0 0.984,-0.012 0.42,0 0.852,-0.012 1.284,-0.012 0.432,0 0.84,-0.012 1.2,-0.024 0.372,0 0.624,-0.012 0.756,-0.012 0.18,0 0.3,-0.048 0.36,-0.144 0.072,-0.096 0.108,-0.204 0.108,-0.312 0,-0.12 -0.024,-0.216 -0.084,-0.312 -0.048,-0.096 -0.18,-0.132 -0.372,-0.132 h -1.404 c -0.024,-0.732 -0.048,-1.404 -0.06,-2.028 -0.012,-0.624 0.012,-1.308 0.06,-2.052 0,-0.036 0,-0.084 -0.012,-0.156 -0.012,-0.072 -0.036,-0.156 -0.084,-0.228 -0.048,-0.072 -0.108,-0.144 -0.18,-0.192 -0.072,-0.048 -0.18,-0.072 -0.3,-0.072 -0.384,-0.012 -0.744,-0.012 -1.068,0.012 -0.324,0.012 -0.6,0.024 -0.828,0.036 -0.144,0 -0.264,0.06 -0.336,0.156 -0.072,0.096 -0.096,0.216 -0.096,0.336 0,0.108 0.036,0.204 0.108,0.288 0.072,0.096 0.192,0.132 0.336,0.132 0.288,0.012 0.552,0.012 0.768,0 0.228,-0.024 0.444,-0.012 0.648,0.012 -0.024,0.48 -0.036,0.948 -0.048,1.416 -0.024,0.468 -0.024,0.96 0,1.464 0,0.168 0.012,0.324 0.012,0.468 v 0.408 z m 2.1,-5.472 c 0.264,-0.024 0.48,-0.12 0.648,-0.288 0.156,-0.168 0.24,-0.36 0.24,-0.6 0,-0.228 -0.084,-0.432 -0.24,-0.6 -0.168,-0.168 -0.384,-0.24 -0.648,-0.24 -0.24,0.012 -0.456,0.096 -0.648,0.264 -0.192,0.168 -0.288,0.36 -0.288,0.588 0,0.24 0.084,0.444 0.252,0.636 0.168,0.192 0.396,0.276 0.684,0.24 z m 8.87999,1.788 c -0.096,-0.36 -0.3,-0.696 -0.612,-0.996 -0.312,-0.3 -0.672,-0.456 -1.08,-0.456 -0.408,0 -0.792,0.084 -1.164,0.24 -0.384,0.156 -0.72,0.384 -1.008,0.696 -0.288,0.312 -0.528,0.72 -0.696,1.2 -0.18,0.48 -0.276,1.044 -0.276,1.692 -0.012,0.312 0.036,0.612 0.132,0.9 0.096,0.288 0.252,0.552 0.444,0.768 0.192,0.228 0.432,0.408 0.72,0.552 0.288,0.144 0.612,0.216 0.996,0.228 0.384,0 0.732,-0.024 1.032,-0.096 0.288,-0.072 0.54,-0.168 0.756,-0.276 0.216,-0.12 0.384,-0.24 0.528,-0.384 0.132,-0.144 0.228,-0.264 0.288,-0.384 0.12,-0.252 0.144,-0.432 0.084,-0.552 -0.072,-0.12 -0.168,-0.216 -0.288,-0.264 -0.132,-0.06 -0.276,-0.072 -0.42,-0.036 -0.156,0.036 -0.288,0.192 -0.384,0.456 -0.048,0.12 -0.204,0.24 -0.444,0.36 -0.252,0.12 -0.588,0.18 -1.02,0.168 -0.312,-0.024 -0.552,-0.096 -0.732,-0.216 -0.18,-0.132 -0.312,-0.288 -0.396,-0.468 -0.084,-0.168 -0.132,-0.36 -0.144,-0.564 -0.024,-0.204 -0.024,-0.396 -0.012,-0.564 0.024,-0.468 0.096,-0.864 0.228,-1.176 0.132,-0.312 0.288,-0.564 0.456,-0.744 0.168,-0.192 0.36,-0.324 0.552,-0.396 0.192,-0.072 0.36,-0.108 0.516,-0.108 0.312,0 0.516,0.084 0.588,0.276 0.072,0.192 0.156,0.396 0.228,0.612 0.072,0.24 0.192,0.372 0.336,0.42 0.144,0.036 0.3,0.024 0.444,-0.024 0.12,-0.06 0.228,-0.156 0.324,-0.276 0.084,-0.12 0.096,-0.324 0.024,-0.588 z m 3.27599,-0.672 c 0,-0.24 -0.048,-0.408 -0.144,-0.504 -0.108,-0.084 -0.228,-0.132 -0.36,-0.132 -0.156,0 -0.3,0.048 -0.432,0.144 -0.132,0.096 -0.204,0.264 -0.204,0.516 -0.012,0.48 -0.048,1.02 -0.108,1.62 -0.06,0.6 -0.072,1.224 -0.048,1.848 0,0.276 0.024,0.54 0.072,0.792 0.036,0.264 0.06,0.456 0.072,0.6 0.012,0.204 0.072,0.336 0.168,0.408 0.096,0.072 0.216,0.108 0.336,0.12 0.144,0 0.276,-0.024 0.396,-0.084 0.12,-0.072 0.18,-0.216 0.168,-0.432 0,-0.228 -0.024,-0.504 -0.072,-0.828 -0.036,-0.336 -0.06,-0.672 -0.06,-1.02 0,-0.156 0,-0.312 0,-0.456 0,-0.144 0.012,-0.288 0.012,-0.432 0.036,-0.108 0.12,-0.252 0.24,-0.444 0.132,-0.192 0.3,-0.384 0.504,-0.576 0.204,-0.192 0.444,-0.348 0.708,-0.492 0.276,-0.144 0.576,-0.216 0.888,-0.216 0.096,0.096 0.144,0.216 0.132,0.36 0,0.144 0.012,0.3 0.036,0.48 0.024,0.12 0.084,0.228 0.204,0.324 0.12,0.096 0.24,0.12 0.36,0.096 0.108,-0.036 0.204,-0.084 0.288,-0.144 0.096,-0.072 0.156,-0.18 0.18,-0.324 0.036,-0.12 0.048,-0.276 0.048,-0.468 0,-0.192 -0.024,-0.372 -0.048,-0.552 -0.024,-0.192 -0.072,-0.348 -0.132,-0.492 -0.06,-0.144 -0.132,-0.216 -0.216,-0.24 -0.408,-0.012 -0.78,0.024 -1.116,0.096 -0.348,0.072 -0.648,0.168 -0.9,0.288 -0.264,0.12 -0.48,0.264 -0.66,0.408 -0.18,0.144 -0.312,0.288 -0.384,0.432 0,-0.12 0.012,-0.228 0.036,-0.348 0.012,-0.12 0.024,-0.228 0.036,-0.348 z m 7.57199,4.488 c -0.624,-0.024 -1.02,-0.24 -1.212,-0.624 -0.192,-0.384 -0.276,-0.864 -0.252,-1.44 0.024,-0.684 0.156,-1.236 0.384,-1.656 0.228,-0.408 0.564,-0.624 1.02,-0.624 0.456,0 0.816,0.18 1.092,0.528 0.276,0.36 0.396,0.948 0.372,1.764 -0.024,0.6 -0.156,1.092 -0.372,1.488 -0.228,0.408 -0.576,0.588 -1.032,0.564 z m -0.24,0.948 c 0.936,0.012 1.62,-0.228 2.052,-0.732 0.42,-0.504 0.66,-1.188 0.72,-2.076 0.024,-0.6 -0.024,-1.116 -0.144,-1.548 -0.12,-0.432 -0.3,-0.78 -0.528,-1.044 -0.24,-0.264 -0.504,-0.468 -0.816,-0.588 -0.312,-0.12 -0.624,-0.18 -0.948,-0.18 -0.444,0 -0.84,0.084 -1.176,0.252 -0.336,0.168 -0.624,0.384 -0.852,0.672 -0.228,0.288 -0.396,0.624 -0.516,1.008 -0.12,0.384 -0.168,0.804 -0.168,1.248 -0.012,0.384 0.036,0.756 0.144,1.116 0.108,0.36 0.264,0.672 0.468,0.948 0.204,0.276 0.456,0.492 0.756,0.66 0.288,0.168 0.624,0.264 1.008,0.264 z m 4.40399,-1.044 c 0.096,0.396 0.336,0.684 0.72,0.864 0.372,0.192 0.768,0.276 1.176,0.276 0.396,0 0.78,-0.048 1.152,-0.144 0.36,-0.096 0.684,-0.228 0.972,-0.408 0.276,-0.168 0.504,-0.384 0.684,-0.648 0.192,-0.264 0.3,-0.552 0.336,-0.888 0.036,-0.24 -0.012,-0.456 -0.132,-0.648 -0.12,-0.192 -0.3,-0.348 -0.528,-0.48 -0.24,-0.132 -0.516,-0.24 -0.828,-0.336 -0.312,-0.096 -0.648,-0.18 -0.996,-0.252 -0.108,-0.024 -0.228,-0.048 -0.36,-0.072 -0.132,-0.024 -0.252,-0.06 -0.372,-0.108 -0.12,-0.036 -0.228,-0.084 -0.312,-0.132 -0.084,-0.048 -0.132,-0.108 -0.132,-0.168 -0.024,-0.168 0.036,-0.3 0.18,-0.42 0.144,-0.12 0.324,-0.228 0.54,-0.3 0.216,-0.072 0.444,-0.132 0.696,-0.168 0.252,-0.036 0.48,-0.048 0.684,-0.048 0.048,0.204 0.096,0.348 0.132,0.444 0.036,0.096 0.072,0.192 0.12,0.288 0.024,0.084 0.108,0.168 0.228,0.252 0.12,0.084 0.264,0.096 0.432,0.048 0.144,-0.048 0.24,-0.144 0.264,-0.276 0.024,-0.132 0.036,-0.264 0.036,-0.384 0,-0.048 -0.012,-0.144 -0.036,-0.288 -0.024,-0.144 -0.06,-0.3 -0.096,-0.456 -0.048,-0.168 -0.096,-0.312 -0.144,-0.432 -0.06,-0.12 -0.12,-0.18 -0.192,-0.18 -1.344,0 -2.352,0.168 -3,0.528 -0.648,0.348 -0.972,0.816 -0.972,1.392 0,0.312 0.072,0.552 0.228,0.72 0.144,0.168 0.444,0.324 0.876,0.468 0.288,0.096 0.6,0.168 0.912,0.24 0.312,0.072 0.588,0.132 0.84,0.204 0.24,0.072 0.444,0.144 0.6,0.228 0.156,0.084 0.228,0.192 0.228,0.336 -0.024,0.144 -0.096,0.276 -0.24,0.42 -0.144,0.132 -0.312,0.252 -0.504,0.36 -0.192,0.096 -0.396,0.18 -0.612,0.24 -0.216,0.06 -0.396,0.096 -0.54,0.096 -0.324,0 -0.54,-0.06 -0.636,-0.156 -0.096,-0.096 -0.192,-0.252 -0.276,-0.456 -0.096,-0.216 -0.228,-0.348 -0.396,-0.396 -0.18,-0.048 -0.348,-0.048 -0.492,0.024 -0.12,0.048 -0.204,0.144 -0.252,0.276 -0.048,0.132 -0.048,0.312 0.012,0.54 z m 7.84799,-1.8 c 0,-0.048 0.012,-0.18 0.048,-0.408 0.048,-0.216 0.132,-0.456 0.264,-0.708 0.132,-0.24 0.324,-0.468 0.564,-0.672 0.252,-0.192 0.576,-0.3 0.984,-0.312 0.228,0 0.396,0.144 0.516,0.42 0.12,0.276 0.18,0.66 0.192,1.164 0,0.504 0,0.984 -0.012,1.428 -0.024,0.444 -0.024,0.864 -0.024,1.272 0,0.192 0.06,0.336 0.192,0.444 0.12,0.108 0.252,0.168 0.384,0.168 0.144,0.012 0.276,-0.036 0.396,-0.156 0.12,-0.12 0.192,-0.3 0.192,-0.552 0,-0.432 -0.024,-0.912 -0.06,-1.428 -0.048,-0.504 -0.06,-1.068 -0.048,-1.68 0,-0.276 -0.024,-0.54 -0.072,-0.804 -0.048,-0.264 -0.12,-0.492 -0.216,-0.684 -0.108,-0.192 -0.252,-0.348 -0.42,-0.468 -0.168,-0.12 -0.384,-0.18 -0.636,-0.18 -0.624,0 -1.116,0.132 -1.464,0.372 -0.36,0.24 -0.612,0.504 -0.756,0.768 0,-0.276 -0.012,-0.6 -0.012,-0.972 0,-0.36 -0.012,-0.72 -0.012,-1.068 0,-0.348 0,-0.66 0,-0.924 v -0.516 c 0,-0.216 -0.06,-0.36 -0.18,-0.456 -0.12,-0.084 -0.252,-0.12 -0.396,-0.12 -0.144,0 -0.264,0.048 -0.372,0.144 -0.12,0.096 -0.18,0.252 -0.18,0.468 -0.012,0.264 -0.024,0.588 -0.024,0.948 0,0.372 0,0.756 0,1.164 0,0.408 0,0.804 0.012,1.212 0,0.408 0.012,0.792 0.036,1.128 0,0.168 0,0.42 -0.012,0.744 -0.012,0.324 -0.024,0.66 -0.036,0.996 -0.012,0.336 -0.024,0.648 -0.036,0.936 -0.024,0.288 -0.036,0.468 -0.036,0.54 -0.024,0.192 0.024,0.336 0.132,0.432 0.096,0.096 0.216,0.144 0.36,0.144 0.144,0.012 0.288,-0.024 0.432,-0.12 0.132,-0.096 0.204,-0.228 0.228,-0.396 0.024,-0.264 0.048,-0.54 0.048,-0.828 0,-0.276 0,-0.612 0.012,-1.008 0,-0.072 0,-0.156 0,-0.228 0,-0.072 0,-0.144 0.012,-0.204 z m 0,0 c 0,0 -0.012,0 -0.012,0.012 0,-0.012 0.012,-0.012 0.012,-0.012 z m 7.78799,1.896 c -0.624,-0.024 -1.02,-0.24 -1.212,-0.624 -0.192,-0.384 -0.276,-0.864 -0.252,-1.44 0.024,-0.684 0.156,-1.236 0.384,-1.656 0.228,-0.408 0.564,-0.624 1.02,-0.624 0.456,0 0.816,0.18 1.092,0.528 0.276,0.36 0.396,0.948 0.372,1.764 -0.024,0.6 -0.156,1.092 -0.372,1.488 -0.228,0.408 -0.576,0.588 -1.032,0.564 z m -0.24,0.948 c 0.936,0.012 1.62,-0.228 2.052,-0.732 0.42,-0.504 0.66,-1.188 0.72,-2.076 0.024,-0.6 -0.024,-1.116 -0.144,-1.548 -0.12,-0.432 -0.3,-0.78 -0.528,-1.044 -0.24,-0.264 -0.504,-0.468 -0.816,-0.588 -0.312,-0.12 -0.624,-0.18 -0.948,-0.18 -0.444,0 -0.84,0.084 -1.176,0.252 -0.336,0.168 -0.624,0.384 -0.852,0.672 -0.228,0.288 -0.396,0.624 -0.516,1.008 -0.12,0.384 -0.168,0.804 -0.168,1.248 -0.012,0.384 0.036,0.756 0.144,1.116 0.108,0.36 0.264,0.672 0.468,0.948 0.204,0.276 0.456,0.492 0.756,0.66 0.288,0.168 0.624,0.264 1.008,0.264 z m 5.44799,-4.272 v -0.132 c 0.204,-0.168 0.456,-0.324 0.744,-0.456 0.288,-0.132 0.564,-0.204 0.828,-0.204 0.156,0 0.3,0.036 0.432,0.084 0.144,0.048 0.264,0.144 0.372,0.288 0.108,0.144 0.192,0.348 0.264,0.6 0.072,0.264 0.108,0.588 0.12,0.984 0.012,0.264 0,0.516 -0.048,0.78 -0.036,0.264 -0.108,0.492 -0.204,0.708 -0.096,0.216 -0.24,0.384 -0.408,0.516 -0.168,0.144 -0.372,0.216 -0.612,0.216 -0.288,0.012 -0.564,0.024 -0.804,0.024 -0.24,0 -0.456,-0.024 -0.624,-0.096 0,-0.648 -0.012,-1.272 -0.024,-1.884 -0.012,-0.6 -0.024,-1.08 -0.036,-1.428 z m -0.924,-1.836 c -0.036,0.06 -0.06,0.18 -0.084,0.36 -0.024,0.18 -0.036,0.456 -0.036,0.816 v 1.656 c 0,0.696 0.012,1.404 0.012,2.124 0.012,0.72 0.024,1.416 0.036,2.064 0.024,0.66 0.036,1.176 0.048,1.536 0.012,0.24 0.072,0.396 0.192,0.468 0.12,0.072 0.252,0.12 0.372,0.12 0.132,0 0.252,-0.036 0.36,-0.132 0.108,-0.096 0.156,-0.24 0.144,-0.444 0,-0.216 0,-0.564 -0.012,-1.02 0,-0.456 -0.012,-0.972 -0.024,-1.524 0.168,0.06 0.384,0.096 0.624,0.12 0.252,0.024 0.552,0.024 0.912,0.012 0.384,0 0.708,-0.096 0.996,-0.276 0.288,-0.168 0.54,-0.396 0.732,-0.672 0.192,-0.264 0.348,-0.564 0.444,-0.9 0.096,-0.324 0.144,-0.636 0.132,-0.948 0,-0.648 -0.06,-1.176 -0.18,-1.608 -0.108,-0.42 -0.264,-0.756 -0.468,-0.996 -0.192,-0.24 -0.432,-0.42 -0.72,-0.516 -0.276,-0.096 -0.588,-0.144 -0.936,-0.144 -0.264,0 -0.54,0.048 -0.804,0.144 -0.264,0.096 -0.528,0.228 -0.804,0.408 0.012,-0.156 0.024,-0.264 0.036,-0.336 0.024,-0.072 0.036,-0.132 0.036,-0.18 0.036,-0.096 0.012,-0.204 -0.084,-0.3 -0.084,-0.096 -0.192,-0.156 -0.312,-0.168 -0.108,-0.012 -0.228,0.012 -0.348,0.072 -0.12,0.06 -0.216,0.144 -0.264,0.264 z"
       id="text1"
       style="font-size:12px;font-family:'ComicShannsMono Nerd Font';-inkscape-font-specification:'ComicShannsMono Nerd Font, Normal';white-space:pre;fill:url(#linearGradient2);fill-rule:evenodd;stroke:#ffffff;stroke-width:0.377953"
       transform="matrix(1.2171068,0,0,1.2171068,-274.10675,-292.88939)"
       aria-label="Microshop" />
    <g
       id="g10"
       transform="matrix(4.6000886,0,0,4.6000886,-221.87988,-324.6151)">
      <rect
         style="fill:#ffffff;fill-opacity:1;fill-rule:evenodd;stroke:none;stroke-width:0.0866543;stroke-dasharray:none;stroke-opacity:1"
         id="rect6"
         width="9.798769"
         height="1.2628485"
         x="52.197739"
         y="73.315369"
         ry="0.63142425" />
      <g
         id="text6"
         style="font-size:2.66667px;font-family:'ComicShannsMono Nerd Font';-inkscape-font-specification:'ComicShannsMono Nerd Font, Normal';white-space:pre;fill:#097bbb;fill-rule:evenodd;stroke-width:0.377953"
         transform="matrix(0.32362419,0,0,0.32362419,-4.4155258,-14.443127)"
         aria-label="www.microshop.com ">
        <path
           d="m 177.88217,273.63963 c 0.0187,-0.056 0.04,-0.13067 0.0613,-0.22133 0.0213,-0.0907 0.04,-0.184 0.0587,-0.28267 0.016,-0.096 0.032,-0.19467 0.048,-0.29333 0.016,-0.0987 0.0267,-0.184 0.0373,-0.25867 0.005,-0.0507 -0.003,-0.088 -0.0187,-0.10933 -0.0187,-0.0213 -0.04,-0.0347 -0.064,-0.04 -0.0267,-0.005 -0.056,-0.003 -0.0827,0.0107 -0.0267,0.0133 -0.0427,0.0453 -0.048,0.096 -0.008,0.0693 -0.016,0.144 -0.0267,0.22934 -0.0107,0.0853 -0.0213,0.168 -0.032,0.25333 -0.0107,0.0827 -0.024,0.16267 -0.0347,0.24 -0.0107,0.08 -0.024,0.14667 -0.0347,0.20533 -0.0213,-0.0773 -0.04,-0.168 -0.0613,-0.27466 -0.0213,-0.10667 -0.0373,-0.208 -0.0533,-0.304 -0.016,-0.096 -0.032,-0.17867 -0.0427,-0.248 -0.0107,-0.0693 -0.0187,-0.112 -0.0187,-0.12267 -0.0133,-0.0373 -0.032,-0.064 -0.0533,-0.0773 -0.0213,-0.0107 -0.0453,-0.0187 -0.0667,-0.0213 -0.0293,0 -0.056,0.005 -0.08,0.0187 -0.024,0.0133 -0.04,0.04 -0.0507,0.0773 -0.0133,0.0453 -0.0293,0.10667 -0.0453,0.18667 -0.016,0.08 -0.032,0.16267 -0.048,0.25333 -0.016,0.0907 -0.0347,0.17867 -0.0507,0.26934 -0.016,0.0907 -0.032,0.17066 -0.0427,0.23733 -0.0107,-0.056 -0.024,-0.12267 -0.0347,-0.2 -0.0133,-0.0747 -0.0267,-0.15467 -0.0373,-0.23733 -0.0133,-0.08 -0.0267,-0.16267 -0.0373,-0.248 -0.0107,-0.0853 -0.0213,-0.16534 -0.0267,-0.24 -0.008,-0.0453 -0.0267,-0.0747 -0.056,-0.0907 -0.0267,-0.016 -0.056,-0.0213 -0.0853,-0.0187 -0.0267,0.005 -0.0507,0.016 -0.072,0.0373 -0.0213,0.0213 -0.0293,0.0533 -0.024,0.096 0.0133,0.168 0.04,0.344 0.08,0.53066 0.0427,0.18667 0.0907,0.37334 0.14933,0.56267 0.0133,0.04 0.032,0.0667 0.056,0.08 0.0267,0.0133 0.048,0.0187 0.0693,0.0187 0.0213,0 0.0427,-0.005 0.064,-0.0187 0.024,-0.0133 0.04,-0.0347 0.048,-0.064 0.0533,-0.16 0.0933,-0.31733 0.11733,-0.472 0.0267,-0.152 0.0533,-0.29067 0.0853,-0.416 0.0107,0.0587 0.0187,0.12267 0.0267,0.19733 0.008,0.0747 0.0187,0.152 0.0293,0.22934 0.0107,0.08 0.024,0.15733 0.04,0.232 0.016,0.0747 0.0347,0.14133 0.056,0.2 0.016,0.0373 0.0347,0.0613 0.0613,0.072 0.0267,0.0107 0.0533,0.016 0.08,0.016 0.0347,0.003 0.0667,-0.003 0.096,-0.016 0.0293,-0.0107 0.0507,-0.0373 0.064,-0.0747 z m 1.46666,0 c 0.0187,-0.056 0.04,-0.13067 0.0613,-0.22133 0.0213,-0.0907 0.04,-0.184 0.0587,-0.28267 0.016,-0.096 0.032,-0.19467 0.048,-0.29333 0.016,-0.0987 0.0267,-0.184 0.0373,-0.25867 0.005,-0.0507 -0.003,-0.088 -0.0187,-0.10933 -0.0187,-0.0213 -0.04,-0.0347 -0.064,-0.04 -0.0267,-0.005 -0.056,-0.003 -0.0827,0.0107 -0.0267,0.0133 -0.0427,0.0453 -0.048,0.096 -0.008,0.0693 -0.016,0.144 -0.0267,0.22934 -0.0107,0.0853 -0.0213,0.168 -0.032,0.25333 -0.0107,0.0827 -0.024,0.16267 -0.0347,0.24 -0.0107,0.08 -0.024,0.14667 -0.0347,0.20533 -0.0213,-0.0773 -0.04,-0.168 -0.0613,-0.27466 -0.0213,-0.10667 -0.0373,-0.208 -0.0533,-0.304 -0.016,-0.096 -0.032,-0.17867 -0.0427,-0.248 -0.0107,-0.0693 -0.0187,-0.112 -0.0187,-0.12267 -0.0133,-0.0373 -0.032,-0.064 -0.0533,-0.0773 -0.0213,-0.0107 -0.0453,-0.0187 -0.0667,-0.0213 -0.0293,0 -0.056,0.005 -0.08,0.0187 -0.024,0.0133 -0.04,0.04 -0.0507,0.0773 -0.0133,0.0453 -0.0293,0.10667 -0.0453,0.18667 -0.016,0.08 -0.032,0.16267 -0.048,0.25333 -0.016,0.0907 -0.0347,0.17867 -0.0507,0.26934 -0.016,0.0907 -0.032,0.17066 -0.0427,0.23733 -0.0107,-0.056 -0.024,-0.12267 -0.0347,-0.2 -0.0133,-0.0747 -0.0267,-0.15467 -0.0373,-0.23733 -0.0133,-0.08 -0.0267,-0.16267 -0.0373,-0.248 -0.0107,-0.0853 -0.0213,-0.16534 -0.0267,-0.24 -0.008,-0.0453 -0.0267,-0.0747 -0.056,-0.0907 -0.0267,-0.016 -0.056,-0.0213 -0.0853,-0.0187 -0.0267,0.005 -0.0507,0.016 -0.072,0.0373 -0.0213,0.0213 -0.0293,0.0533 -0.024,0.096 0.0133,0.168 0.04,0.344 0.08,0.53066 0.0427,0.18667 0.0907,0.37334 0.14933,0.56267 0.0133,0.04 0.032,0.0667 0.056,0.08 0.0267,0.0133 0.048,0.0187 0.0693,0.0187 0.0213,0 0.0427,-0.005 0.064,-0.0187 0.024,-0.0133 0.04,-0.0347 0.048,-0.064 0.0533,-0.16 0.0933,-0.31733 0.11734,-0.472 0.0267,-0.152 0.0533,-0.29067 0.0853,-0.416 0.0107,0.0587 0.0187,0.12267 0.0267,0.19733 0.008,0.0747 0.0187,0.152 0.0293,0.22934 0.0107,0.08 0.024,0.15733 0.04,0.232 0.016,0.0747 0.0347,0.14133 0.056,0.2 0.016,0.0373 0.0347,0.0613 0.0613,0.072 0.0267,0.0107 0.0533,0.016 0.08,0.016 0.0347,0.003 0.0667,-0.003 0.096,-0.016 0.0293,-0.0107 0.0507,-0.0373 0.064,-0.0747 z m 1.46667,0 c 0.0187,-0.056 0.04,-0.13067 0.0613,-0.22133 0.0213,-0.0907 0.04,-0.184 0.0587,-0.28267 0.016,-0.096 0.032,-0.19467 0.048,-0.29333 0.016,-0.0987 0.0267,-0.184 0.0373,-0.25867 0.005,-0.0507 -0.003,-0.088 -0.0187,-0.10933 -0.0187,-0.0213 -0.04,-0.0347 -0.064,-0.04 -0.0267,-0.005 -0.056,-0.003 -0.0827,0.0107 -0.0267,0.0133 -0.0427,0.0453 -0.048,0.096 -0.008,0.0693 -0.016,0.144 -0.0267,0.22934 -0.0107,0.0853 -0.0213,0.168 -0.032,0.25333 -0.0107,0.0827 -0.024,0.16267 -0.0347,0.24 -0.0107,0.08 -0.024,0.14667 -0.0347,0.20533 -0.0213,-0.0773 -0.04,-0.168 -0.0613,-0.27466 -0.0213,-0.10667 -0.0373,-0.208 -0.0533,-0.304 -0.016,-0.096 -0.032,-0.17867 -0.0427,-0.248 -0.0107,-0.0693 -0.0187,-0.112 -0.0187,-0.12267 -0.0133,-0.0373 -0.032,-0.064 -0.0533,-0.0773 -0.0213,-0.0107 -0.0453,-0.0187 -0.0667,-0.0213 -0.0293,0 -0.056,0.005 -0.08,0.0187 -0.024,0.0133 -0.04,0.04 -0.0507,0.0773 -0.0133,0.0453 -0.0293,0.10667 -0.0453,0.18667 -0.016,0.08 -0.032,0.16267 -0.048,0.25333 -0.016,0.0907 -0.0347,0.17867 -0.0507,0.26934 -0.016,0.0907 -0.032,0.17066 -0.0427,0.23733 -0.0107,-0.056 -0.024,-0.12267 -0.0347,-0.2 -0.0133,-0.0747 -0.0267,-0.15467 -0.0373,-0.23733 -0.0133,-0.08 -0.0267,-0.16267 -0.0373,-0.248 -0.0107,-0.0853 -0.0213,-0.16534 -0.0267,-0.24 -0.008,-0.0453 -0.0267,-0.0747 -0.056,-0.0907 -0.0267,-0.016 -0.056,-0.0213 -0.0853,-0.0187 -0.0267,0.005 -0.0507,0.016 -0.072,0.0373 -0.0213,0.0213 -0.0293,0.0533 -0.024,0.096 0.0133,0.168 0.04,0.344 0.08,0.53066 0.0427,0.18667 0.0907,0.37334 0.14934,0.56267 0.0133,0.04 0.032,0.0667 0.056,0.08 0.0267,0.0133 0.048,0.0187 0.0693,0.0187 0.0213,0 0.0427,-0.005 0.064,-0.0187 0.024,-0.0133 0.04,-0.0347 0.048,-0.064 0.0533,-0.16 0.0933,-0.31733 0.11733,-0.472 0.0267,-0.152 0.0533,-0.29067 0.0853,-0.416 0.0107,0.0587 0.0187,0.12267 0.0267,0.19733 0.008,0.0747 0.0187,0.152 0.0293,0.22934 0.0107,0.08 0.024,0.15733 0.04,0.232 0.016,0.0747 0.0347,0.14133 0.056,0.2 0.016,0.0373 0.0347,0.0613 0.0613,0.072 0.0267,0.0107 0.0533,0.016 0.08,0.016 0.0347,0.003 0.0667,-0.003 0.096,-0.016 0.0293,-0.0107 0.0507,-0.0373 0.064,-0.0747 z m 1.01333,0.0587 c 0.0587,-0.005 0.10667,-0.0267 0.144,-0.064 0.0347,-0.0373 0.0533,-0.08 0.0533,-0.13334 0,-0.0507 -0.0187,-0.096 -0.0533,-0.13333 -0.0373,-0.0373 -0.0853,-0.0533 -0.144,-0.0533 -0.0533,0.003 -0.10133,0.0213 -0.144,0.0587 -0.0427,0.0373 -0.064,0.08 -0.064,0.13067 0,0.0533 0.0187,0.0987 0.056,0.14133 0.0373,0.0427 0.088,0.0613 0.152,0.0533 z"
           id="path1" />
        <path
           style="font-weight:bold"
           d="m 183.29283,273.7223 c 0.0613,0 0.10134,-0.032 0.11734,-0.072 0.016,-0.0293 0.016,-0.0587 0.016,-0.0827 0,0 -0.003,-0.08 -0.003,-0.128 0,-0.13333 0.016,-0.23733 0.016,-0.41067 0,-0.048 -0.003,-0.10133 -0.005,-0.16266 0.032,-0.0987 0.0987,-0.22934 0.18133,-0.23734 0.008,0.0267 0.016,0.0747 0.016,0.28534 0,0.176 -0.003,0.35733 -0.003,0.46133 0,0.21867 0.0133,0.28 0.0667,0.31467 0.032,0.0187 0.064,0.032 0.0987,0.032 0.13066,0 0.13866,-0.10667 0.13866,-0.16267 0,-0.008 0,-0.016 0,-0.024 0,-0.0213 0,-0.024 0,0 v 0 c -0.003,-0.072 -0.005,-0.144 -0.005,-0.21867 0,-0.003 0.005,-0.32 0.005,-0.328 0,-0.504 -0.072,-0.59466 -0.184,-0.59466 -0.104,0 -0.192,0.0267 -0.26133,0.088 -0.04,0.0373 -0.0747,0.0747 -0.104,0.112 -0.0587,-0.192 -0.13333,-0.2 -0.16533,-0.2 -0.12,0 -0.21067,0.056 -0.27467,0.13333 0,-0.005 0,-0.008 0,-0.0107 0,-0.10666 -0.0533,-0.16266 -0.13867,-0.16266 -0.0133,0 -0.0453,0.003 -0.08,0.0213 -0.0453,0.024 -0.0853,0.0747 -0.088,0.16533 -0.003,0.17067 -0.005,0.31467 -0.005,0.43467 0,0.14667 0.003,0.392 0.0187,0.58667 0,0 0,0.003 0,0.003 0,0.0187 0,0.0453 0.0107,0.072 0.0267,0.072 0.0933,0.0853 0.128,0.088 h 0.003 c 0.0773,0 0.12267,-0.0427 0.13867,-0.0853 0.0133,-0.0293 0.0133,-0.0587 0.0133,-0.0747 0,0 0,-0.003 0,-0.003 0,-0.005 -0.0107,-0.288 -0.0107,-0.36534 v 0 -0.003 c -0.003,-0.048 -0.005,-0.12267 -0.005,-0.18934 0,-0.0267 0.003,-0.0533 0.003,-0.0747 0.0613,-0.13067 0.144,-0.23734 0.20533,-0.23734 0.003,0 0.003,0.003 0.005,0.003 0.016,0.024 0.016,0.14667 0.016,0.30667 0,0.26133 -0.024,0.33066 -0.024,0.47466 0,0.224 0.072,0.24534 0.16,0.24534 z m 1.37067,-1.00267 c -0.0133,0.32267 -0.0133,0.32267 -0.0133,0.4 0,0.0853 0,0.0853 0.005,0.25333 v 0.0507 h -0.35733 c -0.13334,0 -0.136,0.10933 -0.136,0.152 0,0.12267 0.104,0.13067 0.13866,0.13067 0.0907,0 0.92534,-0.0107 0.936,-0.0107 0,-0.0347 0.003,-0.0347 0.003,-0.003 0.112,0 0.136,-0.0827 0.13867,-0.136 v 0 c 0,-0.064 -0.0293,-0.104 -0.0667,-0.12 -0.0267,-0.0107 -0.0507,-0.0107 -0.064,-0.0107 h -0.28533 c -0.008,-0.208 -0.0133,-0.352 -0.0133,-0.46667 0,-0.14933 0.008,-0.25067 0.016,-0.352 v 0 c 0,-0.0347 -0.0213,-0.16533 -0.16,-0.16533 -0.0267,-0.003 -0.0533,-0.003 -0.0773,-0.003 -0.12533,0 -0.23733,0.008 -0.34667,0.016 -0.12,0 -0.128,0.112 -0.128,0.136 0,0.0373 0.0187,0.13067 0.13067,0.13067 0.024,0.003 0.0427,0.003 0.0613,0.003 0.0853,0 0.128,-0.005 0.176,-0.005 0.0133,0 0.0267,0 0.0427,0 z m 0.11733,-0.82933 c -0.12,0 -0.25333,0.0747 -0.25333,0.18933 0,0.0693 0.0213,0.13333 0.064,0.18667 0.04,0.0533 0.0987,0.0773 0.15733,0.0773 0.11734,0 0.25067,-0.0987 0.25067,-0.26667 0,-0.096 -0.0853,-0.18666 -0.21867,-0.18666 z m 1.31467,0.51466 c -0.41333,0.16267 -0.46133,0.61067 -0.46133,0.80534 0,0.26933 0.2,0.52533 0.54133,0.53066 0.008,0.003 0.016,0.003 0.024,0.003 0.432,0 0.616,-0.24 0.616,-0.376 0,-0.0187 -0.003,-0.0347 -0.0107,-0.0507 -0.0267,-0.0453 -0.0827,-0.0907 -0.14933,-0.0907 -0.0613,0 -0.12,0.04 -0.15467,0.128 -0.016,0.0427 -0.128,0.0987 -0.26133,0.0987 -0.0613,0 -0.12267,-0.0107 -0.17067,-0.0373 -0.104,-0.0613 -0.11466,-0.16533 -0.11466,-0.26667 0,-0.33333 0.18933,-0.504 0.35733,-0.504 0.064,0 0.0907,0.016 0.0987,0.04 0.0187,0.0427 0.0347,0.0853 0.0507,0.13334 0.0267,0.0853 0.0827,0.12266 0.144,0.12266 0.0667,0 0.128,-0.04 0.16,-0.0853 0.016,-0.024 0.0213,-0.0507 0.0213,-0.08 0,-0.15733 -0.16267,-0.42667 -0.41867,-0.42667 -0.0933,0 -0.18667,0.0187 -0.272,0.056 z m 1.08533,1.17867 c 0.003,0.0453 0.0187,0.0853 0.0533,0.10933 0.0293,0.0187 0.0693,0.032 0.112,0.032 0.136,0 0.14133,-0.112 0.14133,-0.136 0,-0.10133 -0.0293,-0.21333 -0.0293,-0.39733 v 0 c 0,-0.005 0,-0.003 0,-0.003 0,-0.016 -0.003,-0.0373 -0.003,-0.0587 0,-0.032 0.003,-0.0693 0.005,-0.12 0.0293,-0.08 0.21867,-0.33067 0.472,-0.33867 0.008,0.0107 0.0107,0.024 0.0107,0.0373 0,0 0,0.0187 0,0.032 0,0.10934 0.048,0.19734 0.14133,0.19734 0.0373,0 0.072,-0.0133 0.10934,-0.0373 0.0533,-0.0373 0.064,-0.128 0.064,-0.19466 0,-0.10934 -0.032,-0.28 -0.11467,-0.30134 -0.005,-0.003 -0.0107,-0.003 -0.0347,-0.003 -0.30933,0 -0.50666,0.10933 -0.61066,0.20266 0.003,-0.016 0.005,-0.0373 0.005,-0.0587 0,-0.14134 -0.0907,-0.16534 -0.144,-0.16534 -0.08,0 -0.128,0.0373 -0.152,0.0773 -0.0187,0.0347 -0.024,0.0667 -0.024,0.0907 -0.005,0.26134 -0.0373,0.38134 -0.0373,0.62134 0,0.256 0.0293,0.30933 0.0347,0.41333 z m 1.72,-1.16533 c -0.296,0.136 -0.36266,0.42666 -0.36266,0.66666 0,0.0773 0.0107,0.15467 0.0347,0.22667 0.0987,0.30933 0.33867,0.424 0.56534,0.424 0.18133,0 0.352,-0.072 0.44266,-0.17067 0.136,-0.15466 0.17067,-0.36266 0.17067,-0.53333 0,-0.28267 -0.096,-0.46133 -0.22933,-0.56 -0.10667,-0.0827 -0.232,-0.10933 -0.34667,-0.10933 -0.104,0 -0.19467,0.0187 -0.27467,0.056 z m 0.25334,1.104 c -0.13067,-0.008 -0.20534,-0.0507 -0.24,-0.12 -0.0347,-0.0747 -0.0533,-0.16534 -0.0533,-0.27734 0,-0.0613 0.0107,-0.30933 0.11467,-0.42933 0.04,-0.0453 0.0907,-0.072 0.16267,-0.072 0.0933,0 0.16266,0.032 0.21866,0.104 0.048,0.0587 0.0747,0.16533 0.0747,0.31467 0,0.19466 -0.0427,0.33333 -0.10133,0.40533 -0.0373,0.0453 -0.088,0.0747 -0.16267,0.0747 -0.003,0 -0.008,0 -0.0133,0 z m 1.26133,-0.0773 c -0.024,-0.024 -0.0373,-0.0507 -0.0507,-0.0827 -0.0267,-0.0533 -0.0587,-0.12534 -0.17333,-0.12534 -0.096,0 -0.15734,0.0587 -0.15734,0.15734 0,0.024 0.005,0.0507 0.0107,0.08 0.0613,0.232 0.32267,0.27733 0.456,0.27733 0.368,0 0.696,-0.17067 0.73334,-0.46933 0.003,-0.0133 0.003,-0.024 0.003,-0.0347 0,-0.11467 -0.08,-0.192 -0.184,-0.24533 -0.13066,-0.0667 -0.30933,-0.10134 -0.47733,-0.136 -0.10933,-0.0213 -0.14933,-0.048 -0.15733,-0.0587 0,0 0,-0.003 0,-0.008 0,-0.0347 0.0373,-0.072 0.11466,-0.10133 0.0853,-0.0347 0.20267,-0.0507 0.29334,-0.0533 0.0267,0.0907 0.0693,0.22667 0.184,0.22667 0.003,0 0.0373,-0.005 0.0533,-0.0107 0.0827,-0.024 0.0907,-0.0987 0.0907,-0.14133 0,-0.0827 -0.032,-0.2 -0.0347,-0.21067 -0.0267,-0.0907 -0.056,-0.136 -0.10133,-0.136 -0.352,0 -0.57067,0.0507 -0.70667,0.12534 -0.17334,0.0933 -0.21067,0.22133 -0.21067,0.30666 0,0.072 0.0187,0.13067 0.0587,0.17334 0.136,0.13866 0.56533,0.16266 0.728,0.24533 0.0293,0.016 0.0347,0.0267 0.0347,0.0373 0,0.0747 -0.232,0.208 -0.38934,0.208 -0.0693,0 -0.10666,-0.0133 -0.11733,-0.024 z m 2.23733,-0.56266 c 0,-0.19467 -0.048,-0.48534 -0.33066,-0.48534 -0.144,0 -0.25867,0.0293 -0.34667,0.088 -0.0453,0.032 -0.0827,0.064 -0.11467,0.0987 -0.003,-0.184 -0.005,-0.56 -0.005,-0.56 v -0.112 c 0,-0.10133 -0.0613,-0.16267 -0.152,-0.16267 -0.005,0 -0.008,0 -0.0107,0 -0.14133,0.003 -0.15467,0.14667 -0.15467,0.17067 -0.003,0.11733 -0.005,0.288 -0.005,0.46667 0,0.0987 0,0.304 0.0107,0.49866 0,0.0133 0,0.032 0,0.0533 0,0.18933 -0.0267,0.61866 -0.0267,0.624 0,0.005 0,0.0107 0,0.0187 0,0.13334 0.13867,0.13867 0.14933,0.13867 0.0613,0 0.16267,-0.0373 0.17334,-0.14667 0.008,-0.0613 0.0107,-0.12266 0.0107,-0.18666 0,-0.0613 0,-0.136 0.003,-0.224 v 0 c 0,-0.0213 0,-0.0427 0.003,-0.064 v 0 c 0,0 0,0 0,0 v 0 c 0,-0.0347 0.005,-0.0693 0.0133,-0.11734 0.0267,-0.152 0.12267,-0.248 0.17067,-0.28533 0.048,-0.04 0.11467,-0.0613 0.2,-0.064 0.12,0.003 0.12,0.29067 0.12,0.36267 0,0.16533 -0.008,0.552 -0.008,0.55733 0,0.104 0.0853,0.168 0.168,0.168 0.0453,0 0.0907,-0.0187 0.12,-0.0587 0.024,-0.032 0.0373,-0.072 0.0373,-0.12533 0,-0.23733 -0.024,-0.328 -0.024,-0.58933 0,-0.0213 0,-0.0427 0,-0.064 z m 0.648,-0.464 c -0.296,0.136 -0.36267,0.42666 -0.36267,0.66666 0,0.0773 0.0107,0.15467 0.0347,0.22667 0.0987,0.30933 0.33867,0.424 0.56534,0.424 0.18133,0 0.352,-0.072 0.44266,-0.17067 0.136,-0.15466 0.17067,-0.36266 0.17067,-0.53333 0,-0.28267 -0.096,-0.46133 -0.22933,-0.56 -0.10667,-0.0827 -0.232,-0.10933 -0.34667,-0.10933 -0.104,0 -0.19467,0.0187 -0.27467,0.056 z m 0.25334,1.104 c -0.13067,-0.008 -0.20534,-0.0507 -0.24,-0.12 -0.0347,-0.0747 -0.0533,-0.16534 -0.0533,-0.27734 0,-0.0613 0.0107,-0.30933 0.11467,-0.42933 0.04,-0.0453 0.0907,-0.072 0.16267,-0.072 0.0933,0 0.16266,0.032 0.21866,0.104 0.048,0.0587 0.0747,0.16533 0.0747,0.31467 0,0.19466 -0.0427,0.33333 -0.10133,0.40533 -0.0373,0.0453 -0.088,0.0747 -0.16267,0.0747 -0.003,0 -0.008,0 -0.0133,0 z m 1.21866,0.72267 c 0,-0.0347 -0.008,-0.52267 -0.008,-0.52267 0.0533,0.0133 0.12534,0.0213 0.24267,0.0213 0.0213,0 0.0427,0 0.0667,-0.003 0.36533,-0.005 0.544,-0.36 0.544,-0.608 0,-0.005 0,-0.0107 0,-0.016 -0.008,-0.52 -0.18134,-0.72266 -0.54667,-0.72266 -0.0827,0 -0.18667,0.0187 -0.31467,0.0933 0.0107,-0.064 0.0107,-0.064 0.0107,-0.0667 0,-0.0667 -0.0613,-0.12266 -0.13867,-0.12266 -0.024,0 -0.0507,0.005 -0.0773,0.0187 -0.0907,0.0427 -0.104,0.11734 -0.104,0.34134 v 0.35466 c 0,0.74934 0.0213,1.21867 0.0213,1.23201 0.003,0.0773 0.04,0.12266 0.0827,0.144 0.0293,0.0133 0.0587,0.016 0.0747,0.016 v 0 c 0.064,0 0.14666,-0.0427 0.14666,-0.152 0,-0.003 0,-0.005 0,-0.008 z m -0.0133,-0.78401 c -0.005,-0.296 -0.0107,-0.576 -0.0133,-0.656 v -0.0133 c 0.064,-0.048 0.19466,-0.12 0.31466,-0.12 0.032,0 0.0587,0.005 0.0853,0.016 0.12533,0.0427 0.144,0.25067 0.144,0.368 0,0.08 -0.008,0.14133 -0.008,0.14133 -0.04,0.24 -0.18134,0.26934 -0.24,0.272 -0.0773,0 -0.13334,0.003 -0.17334,0.003 -0.0587,0 -0.0853,-0.003 -0.10933,-0.0107 z"
           id="path2" />
        <path
           d="m 196.4955,273.6983 c 0.0587,-0.005 0.10666,-0.0267 0.144,-0.064 0.0347,-0.0373 0.0533,-0.08 0.0533,-0.13334 0,-0.0507 -0.0187,-0.096 -0.0533,-0.13333 -0.0373,-0.0373 -0.0853,-0.0533 -0.144,-0.0533 -0.0533,0.003 -0.10134,0.0213 -0.144,0.0587 -0.0427,0.0373 -0.064,0.08 -0.064,0.13067 0,0.0533 0.0187,0.0987 0.056,0.14133 0.0373,0.0427 0.088,0.0613 0.152,0.0533 z m 1.98133,-1.02667 c -0.0213,-0.08 -0.0667,-0.15467 -0.136,-0.22133 -0.0693,-0.0667 -0.14933,-0.10134 -0.24,-0.10134 -0.0907,0 -0.176,0.0187 -0.25866,0.0533 -0.0853,0.0347 -0.16001,0.0853 -0.22401,0.15466 -0.064,0.0693 -0.11733,0.16 -0.15466,0.26667 -0.04,0.10667 -0.0613,0.232 -0.0613,0.376 -0.003,0.0693 0.008,0.136 0.0293,0.2 0.0213,0.064 0.056,0.12267 0.0987,0.17067 0.0427,0.0507 0.096,0.0907 0.16,0.12266 0.064,0.032 0.13601,0.048 0.22134,0.0507 0.0853,0 0.16267,-0.005 0.22933,-0.0213 0.064,-0.016 0.12,-0.0373 0.168,-0.0613 0.048,-0.0267 0.0853,-0.0533 0.11734,-0.0853 0.0293,-0.032 0.0507,-0.0587 0.064,-0.0853 0.0267,-0.056 0.032,-0.096 0.0187,-0.12267 -0.016,-0.0267 -0.0373,-0.048 -0.064,-0.0587 -0.0293,-0.0133 -0.0613,-0.016 -0.0933,-0.008 -0.0347,0.008 -0.064,0.0427 -0.0853,0.10134 -0.0107,0.0267 -0.0453,0.0533 -0.0987,0.08 -0.056,0.0267 -0.13067,0.04 -0.22667,0.0373 -0.0693,-0.005 -0.12266,-0.0213 -0.16267,-0.048 -0.04,-0.0293 -0.0693,-0.064 -0.088,-0.104 -0.0187,-0.0373 -0.0293,-0.08 -0.032,-0.12533 -0.005,-0.0453 -0.005,-0.088 -0.003,-0.12534 0.005,-0.104 0.0213,-0.192 0.0507,-0.26133 0.0293,-0.0693 0.064,-0.12533 0.10134,-0.16533 0.0373,-0.0427 0.08,-0.072 0.12267,-0.088 0.0427,-0.016 0.08,-0.024 0.11466,-0.024 0.0693,0 0.11467,0.0187 0.13067,0.0613 0.016,0.0427 0.0347,0.088 0.0507,0.136 0.016,0.0533 0.0427,0.0827 0.0747,0.0933 0.032,0.008 0.0667,0.005 0.0987,-0.005 0.0267,-0.0133 0.0507,-0.0347 0.072,-0.0613 0.0187,-0.0267 0.0213,-0.072 0.005,-0.13067 z m 0.944,0.848 c -0.13867,-0.005 -0.22667,-0.0533 -0.26933,-0.13867 -0.0427,-0.0853 -0.0613,-0.192 -0.056,-0.32 0.005,-0.152 0.0347,-0.27466 0.0853,-0.368 0.0507,-0.0907 0.12533,-0.13866 0.22667,-0.13866 0.10133,0 0.18133,0.04 0.24266,0.11733 0.0613,0.08 0.088,0.21067 0.0827,0.392 -0.005,0.13333 -0.0347,0.24267 -0.0827,0.33067 -0.0507,0.0907 -0.128,0.13066 -0.22933,0.12533 z m -0.0533,0.21067 c 0.208,0.003 0.36,-0.0507 0.456,-0.16267 0.0933,-0.112 0.14666,-0.264 0.16,-0.46133 0.005,-0.13334 -0.005,-0.248 -0.032,-0.344 -0.0267,-0.096 -0.0667,-0.17334 -0.11734,-0.232 -0.0533,-0.0587 -0.112,-0.104 -0.18133,-0.13067 -0.0693,-0.0267 -0.13867,-0.04 -0.21067,-0.04 -0.0987,0 -0.18666,0.0187 -0.26133,0.056 -0.0747,0.0373 -0.13867,0.0853 -0.18933,0.14933 -0.0507,0.064 -0.088,0.13867 -0.11467,0.224 -0.0267,0.0853 -0.0373,0.17867 -0.0373,0.27734 -0.003,0.0853 0.008,0.168 0.032,0.248 0.024,0.08 0.0587,0.14933 0.104,0.21066 0.0453,0.0613 0.10133,0.10934 0.168,0.14667 0.064,0.0373 0.13866,0.0587 0.224,0.0587 z m 1.144,-0.14134 c 0,-0.0373 -0.003,-0.0933 -0.005,-0.16533 -0.005,-0.072 -0.005,-0.14667 -0.005,-0.22667 -0.003,-0.0507 -0.005,-0.10133 -0.005,-0.15466 0,-0.0533 0,-0.0987 0.003,-0.13867 0.0267,-0.0667 0.064,-0.13067 0.10667,-0.18933 0.0427,-0.0587 0.088,-0.088 0.13067,-0.088 0.0293,0 0.0453,0.0293 0.0507,0.0827 0.003,0.0533 0.005,0.14667 0.005,0.28 0,0.12 -0.005,0.22934 -0.016,0.328 -0.0107,0.0987 -0.0107,0.18667 -0.005,0.26134 0.005,0.0613 0.0187,0.10133 0.04,0.11733 0.0213,0.016 0.0453,0.024 0.072,0.024 0.0267,0.003 0.0533,-0.005 0.08,-0.0213 0.024,-0.016 0.0347,-0.056 0.032,-0.11734 -0.005,-0.0907 -0.005,-0.19466 0.005,-0.312 0.008,-0.11733 0.008,-0.24266 0,-0.37333 0.024,-0.072 0.056,-0.136 0.096,-0.18933 0.0373,-0.0533 0.0827,-0.08 0.13333,-0.0773 0.016,0 0.0267,0.0347 0.032,0.10667 0.005,0.072 0.005,0.15733 0.005,0.25867 0,0.0987 -0.003,0.2 -0.003,0.30666 -0.003,0.10667 -0.003,0.192 0.003,0.26134 0.003,0.0693 0.0187,0.11466 0.048,0.13333 0.0293,0.0187 0.0587,0.0267 0.088,0.0267 0.0267,0 0.048,-0.0107 0.0693,-0.0267 0.0213,-0.0187 0.0293,-0.064 0.0293,-0.13333 -0.005,-0.12534 -0.008,-0.256 -0.003,-0.39467 0.003,-0.13867 0.003,-0.264 -0.003,-0.37867 -0.005,-0.11466 -0.016,-0.208 -0.0373,-0.28266 -0.0213,-0.0747 -0.056,-0.112 -0.10667,-0.112 -0.10134,0 -0.18134,0.0267 -0.24,0.08 -0.0613,0.0533 -0.10667,0.112 -0.13867,0.17066 -0.016,-0.072 -0.0373,-0.13066 -0.064,-0.17866 -0.0267,-0.048 -0.056,-0.072 -0.0907,-0.072 -0.0827,0 -0.152,0.024 -0.20533,0.0747 -0.0533,0.0507 -0.0933,0.10934 -0.12533,0.17334 0.003,-0.0213 0.005,-0.0427 0.0107,-0.064 0.005,-0.0213 0.008,-0.04 0.0107,-0.0613 0.005,-0.0613 -0.003,-0.104 -0.024,-0.12533 -0.0213,-0.024 -0.048,-0.0347 -0.0747,-0.0347 -0.032,-0.003 -0.0613,0.008 -0.0907,0.032 -0.032,0.0267 -0.048,0.0693 -0.048,0.128 -0.003,0.10667 -0.005,0.22934 -0.005,0.36267 -0.003,0.136 0,0.27467 0.005,0.416 0,0.064 0.003,0.12267 0.008,0.176 0.003,0.056 0.005,0.096 0.005,0.12 0,0.0533 0.0107,0.0907 0.032,0.10667 0.0213,0.016 0.048,0.024 0.0747,0.0267 0.0267,0 0.0533,-0.008 0.08,-0.024 0.0267,-0.016 0.04,-0.0533 0.04,-0.112 z"
           id="path3" />
      </g>
    </g>
  </g>
</svg>
